<?xml version="1.0" encoding="UTF-8"?>
<svg id="Layer_1" data-name="Layer 1" xmlns="http://www.w3.org/2000/svg" xmlns:xlink="http://www.w3.org/1999/xlink" viewBox="0 0 552.37 552.37">
  <defs>
    <style>
      .cls-1 {
        fill: #fff;
      }

      .cls-2 {
        fill: none;
      }

      .cls-3 {
        clip-path: url(#clippath);
      }
    </style>
    <clipPath id="clippath">
      <circle class="cls-2" cx="276.19" cy="279.87" r="276.19"/>
    </clipPath>
  </defs>
  <g class="cls-3">
    <g>
      <path class="cls-1" d="M309.16,565.29H43.65v-55c0-9.88,10.83-42.14,15.08-53.19,8.66-22.48,41.95-78.42,66.27-81.66,20.47-2.73,81.77-2.35,102.7.11,27.64,3.25,59.83,57.8,69.18,82.55,2.87,7.59,12.29,35.1,12.29,40.81v66.38Z"/>
      <path class="cls-1" d="M278.82,223.96c-1.04,19.76,42.96,62.6,42.01,73.86-1.98,23.47-46.64-9.91-55.18-17.12-9.09-7.67-21.94-18.85-24.84-30.24l-28.98,37.33c-6.41,2.2-60.99,1.59-65.75-1.31-6.53-3.97-11.74-22.25-26.36-26.74-30.6-9.39-95.68,18-68.05-44.9,13.94-31.75,50.84-55.72,84.96-59.16,55.17-5.57,132.71-1.11,186,7.36,11.83,1.88,24.41-2.34,36.09,1.84,5.64,3.94,5.76,38.18,0,42.2-31.28-2.22-51.01,11.12-79.89,16.88Z"/>
      <path class="cls-1" d="M233.3,356.67h-110l1.89-41.73c7.4-15.53,63.15-13.06,79.65-11.36,35.45,3.66,28.21,24.02,28.46,53.09Z"/>
      <path class="cls-1" d="M467.2,156.25h40.49c29.6,26.63-70.2,26.51-40.49,0Z"/>
      <path class="cls-1" d="M440.11,254.24c6.01-1.25,42.31,25.9,43.53,35.98-4.32,20.45-69.14-30.65-43.53-35.98Z"/>
      <path class="cls-1" d="M505.61,216.99l2.85,10.75c-4.34,11.05-40.23-.17-48.54-3.83-9.1-4.01-5.33-18.27,5.92-18.21,9.18.05,27.46,12.87,39.77,11.3Z"/>
      <path class="cls-1" d="M438.11,170.75c-13.79,3.74-32.12,9.79-40.73-5.54l5.31-9.75,33.75,3.76,1.67,11.53Z"/>
      <path class="cls-1" d="M418.4,232.15c2.6,7.03,1.49,13.86-4.91,18.22-7.94-6.88-31.85-15.01-28.46-28.3,3.92-15.37,27.19,8.4,33.37,10.08Z"/>
      <path class="cls-1" d="M396.84,204.53l-.44-14.73c50.06-2.52,52.74,35.43.44,14.73Z"/>
    </g>
  </g>
</svg>